<svg width="61" height="61" viewBox="0 0 61 61" fill="none" xmlns="http://www.w3.org/2000/svg">
<g filter="url(#filter0_d_1_6)">
<rect x="4" y="4" width="51" height="51" rx="7" fill="#111729"/>
</g>
<path d="M11.5714 29.6934V34.2834C11.5714 34.4364 11.5862 34.5447 11.616 34.6085C11.6457 34.6722 11.6967 34.719 11.769 34.7487L11.9475 34.8125C12.0835 34.8805 12.1515 34.9804 12.1515 35.1121C12.1515 35.3374 12.0134 35.45 11.7371 35.45H9.09149C8.94699 35.45 8.84287 35.4224 8.77912 35.3671C8.71537 35.3076 8.68349 35.229 8.68349 35.1312C8.68349 35.059 8.70262 34.9974 8.74087 34.9464C8.77912 34.8911 8.84287 34.8465 8.93212 34.8125L9.12974 34.7487C9.19774 34.719 9.24662 34.6722 9.27637 34.6085C9.31037 34.5447 9.32737 34.4385 9.32737 34.2897V30.9365C9.32737 30.8132 9.31037 30.7261 9.27637 30.6751C9.24237 30.6241 9.18924 30.5901 9.11699 30.5731L8.87474 30.5412C8.79399 30.5157 8.73449 30.4817 8.69624 30.4392C8.66224 30.3925 8.64524 30.333 8.64524 30.2607C8.64524 30.1757 8.66862 30.1077 8.71537 30.0567C8.76212 30.0057 8.85137 29.9569 8.98312 29.9101L10.3027 29.4129C10.4855 29.3449 10.6342 29.296 10.749 29.2662C10.8637 29.2322 10.9742 29.2152 11.0805 29.2152C11.242 29.2152 11.3631 29.2599 11.4439 29.3491C11.5289 29.4384 11.5714 29.5531 11.5714 29.6934ZM11.3546 31.1787L11.0231 30.8345L11.2462 30.6305C11.8115 30.0992 12.3002 29.7274 12.7125 29.5149C13.1247 29.3024 13.5115 29.1961 13.8727 29.1961C14.4295 29.1961 14.8736 29.3767 15.2051 29.738C15.5366 30.0992 15.7024 30.5774 15.7024 31.1724V34.277C15.7024 34.43 15.7172 34.5405 15.747 34.6085C15.781 34.6722 15.8341 34.719 15.9064 34.7487L16.0849 34.8189C16.2166 34.8826 16.2825 34.9804 16.2825 35.1121C16.2825 35.3374 16.1465 35.45 15.8745 35.45H13.2862C13.01 35.45 12.8719 35.3374 12.8719 35.1121C12.8719 34.9804 12.9377 34.8805 13.0695 34.8125L13.2607 34.7487C13.333 34.719 13.384 34.6722 13.4137 34.6085C13.4435 34.5405 13.4584 34.43 13.4584 34.277V31.4911C13.4584 31.1681 13.3861 30.928 13.2416 30.7707C13.0971 30.6092 12.8931 30.5285 12.6296 30.5285C12.4639 30.5285 12.2939 30.5646 12.1196 30.6369C11.9454 30.7091 11.7711 30.8196 11.5969 30.9684L11.3546 31.1787ZM15.4856 31.1787L15.1541 30.8345L15.3772 30.6305C15.9467 30.0992 16.4376 29.7274 16.8499 29.5149C17.2621 29.3024 17.6489 29.1961 18.0101 29.1961C18.5626 29.1961 19.0046 29.3767 19.3361 29.738C19.6676 30.0992 19.8334 30.5774 19.8334 31.1724V34.277C19.8334 34.43 19.8504 34.5405 19.8844 34.6085C19.9184 34.6722 19.9715 34.719 20.0437 34.7487L20.2286 34.8125C20.3136 34.8465 20.3752 34.8911 20.4135 34.9464C20.456 34.9974 20.4772 35.059 20.4772 35.1312C20.4772 35.229 20.4432 35.3076 20.3752 35.3671C20.3115 35.4224 20.2095 35.45 20.0692 35.45H17.4172C17.141 35.45 17.0029 35.3374 17.0029 35.1121C17.0029 34.9804 17.0709 34.8805 17.2069 34.8125L17.3917 34.7487C17.464 34.719 17.515 34.6722 17.5447 34.6085C17.5787 34.5405 17.5957 34.43 17.5957 34.277V31.4911C17.5957 31.1681 17.5214 30.928 17.3726 30.7707C17.2281 30.6092 17.0241 30.5285 16.7606 30.5285C16.5949 30.5285 16.4249 30.5646 16.2506 30.6369C16.0764 30.7091 15.9021 30.8196 15.7279 30.9684L15.4856 31.1787Z" fill="#F2F5F9"/>
<path d="M24.6901 29.1961C25.3744 29.1961 25.9757 29.3321 26.4942 29.6041C27.0127 29.8761 27.4165 30.2544 27.7055 30.7389C27.9945 31.2234 28.139 31.7865 28.139 32.4282C28.139 33.0275 27.9881 33.5694 27.6864 34.0539C27.3846 34.5341 26.9702 34.9145 26.4432 35.195C25.9162 35.4755 25.3042 35.6157 24.6072 35.6157C23.9187 35.6157 23.3152 35.4797 22.7967 35.2077C22.2825 34.9315 21.8809 34.5511 21.5919 34.0666C21.3029 33.5821 21.1584 33.0232 21.1584 32.39C21.1584 31.778 21.3071 31.2319 21.6046 30.7516C21.9064 30.2714 22.3207 29.8931 22.8477 29.6169C23.379 29.3364 23.9931 29.1961 24.6901 29.1961ZM25.1427 34.838C25.3722 34.7955 25.5507 34.6722 25.6782 34.4682C25.81 34.26 25.8844 33.9689 25.9014 33.5949C25.9226 33.2209 25.878 32.7576 25.7675 32.2051C25.6655 31.6696 25.5337 31.2297 25.3722 30.8855C25.2107 30.537 25.0259 30.2884 24.8176 30.1396C24.6094 29.9866 24.3862 29.9335 24.1482 29.9802C23.923 30.0227 23.7445 30.146 23.6127 30.35C23.4852 30.554 23.413 30.843 23.396 31.217C23.379 31.591 23.4236 32.0542 23.5299 32.6067C23.6319 33.1422 23.7636 33.5842 23.9251 33.9327C24.0909 34.277 24.2757 34.5256 24.4797 34.6786C24.688 34.8274 24.909 34.8805 25.1427 34.838Z" fill="#F2F5F9"/>
<path d="M31.8419 29.6934V34.2834C31.8419 34.4364 31.8568 34.5447 31.8865 34.6085C31.9163 34.6722 31.9673 34.719 32.0395 34.7487L32.218 34.8125C32.354 34.8805 32.422 34.9804 32.422 35.1121C32.422 35.3374 32.2839 35.45 32.0076 35.45H29.362C29.2175 35.45 29.1134 35.4224 29.0496 35.3671C28.9859 35.3076 28.954 35.229 28.954 35.1312C28.954 35.059 28.9731 34.9974 29.0114 34.9464C29.0496 34.8911 29.1134 34.8465 29.2026 34.8125L29.4003 34.7487C29.4683 34.719 29.5171 34.6722 29.5469 34.6085C29.5809 34.5447 29.5979 34.4385 29.5979 34.2897V30.9365C29.5979 30.8132 29.5809 30.7261 29.5469 30.6751C29.5129 30.6241 29.4598 30.5901 29.3875 30.5731L29.1453 30.5412C29.0645 30.5157 29.005 30.4817 28.9668 30.4392C28.9328 30.3925 28.9158 30.333 28.9158 30.2607C28.9158 30.1757 28.9391 30.1077 28.9859 30.0567C29.0326 30.0057 29.1219 29.9569 29.2536 29.9101L30.5733 29.4129C30.756 29.3449 30.9048 29.296 31.0195 29.2662C31.1343 29.2322 31.2448 29.2152 31.351 29.2152C31.5125 29.2152 31.6336 29.2599 31.7144 29.3491C31.7994 29.4384 31.8419 29.5531 31.8419 29.6934ZM31.6251 31.1787L31.2936 30.8345L31.5168 30.6305C32.082 30.0992 32.575 29.7274 32.9958 29.5149C33.4165 29.3024 33.8075 29.1961 34.1688 29.1961C34.7255 29.1961 35.1739 29.3767 35.5139 29.738C35.8539 30.0992 36.0239 30.5774 36.0239 31.1724V34.277C36.0239 34.43 36.0387 34.5405 36.0685 34.6085C36.1025 34.6722 36.1556 34.719 36.2279 34.7487L36.4128 34.8125C36.502 34.8465 36.5658 34.8911 36.604 34.9464C36.6465 34.9974 36.6678 35.059 36.6678 35.1312C36.6678 35.229 36.6338 35.3076 36.5658 35.3671C36.502 35.4224 36.4 35.45 36.2598 35.45H33.6078C33.3315 35.45 33.1934 35.3374 33.1934 35.1121C33.1934 34.9804 33.2593 34.8805 33.391 34.8125L33.5823 34.7487C33.6545 34.719 33.7055 34.6722 33.7353 34.6085C33.765 34.5405 33.7799 34.43 33.7799 34.277V31.4911C33.7799 31.1681 33.7034 30.928 33.5504 30.7707C33.3974 30.6092 33.1891 30.5285 32.9256 30.5285C32.7599 30.5285 32.5835 30.5646 32.3965 30.6369C32.2138 30.7091 32.0374 30.8196 31.8674 30.9684L31.6251 31.1787Z" fill="#F2F5F9"/>
<path d="M43.5226 31.6377C43.5226 31.897 43.4503 32.0967 43.3058 32.237C43.1656 32.3772 42.9594 32.4474 42.6874 32.4474H38.8051V31.88H40.9662C41.1872 31.88 41.2977 31.778 41.2977 31.574C41.2977 31.0172 41.2148 30.6092 41.0491 30.35C40.8833 30.0865 40.6644 29.9547 40.3924 29.9547C40.1884 29.9547 40.0057 30.0227 39.8442 30.1587C39.6827 30.2947 39.5552 30.4966 39.4617 30.7644C39.3724 31.0279 39.3278 31.353 39.3278 31.7397C39.3278 32.5387 39.5106 33.1316 39.8761 33.5184C40.2458 33.9051 40.7388 34.0985 41.3551 34.0985C41.6866 34.0985 41.9819 34.0432 42.2412 33.9327C42.5004 33.8222 42.7214 33.648 42.9042 33.41C43.0019 33.3165 43.0763 33.2527 43.1273 33.2187C43.1826 33.1847 43.2378 33.1677 43.2931 33.1677C43.3653 33.1677 43.4184 33.2039 43.4524 33.2761C43.4907 33.3484 43.5077 33.4355 43.5034 33.5375C43.4949 33.9072 43.3674 34.2515 43.1209 34.5702C42.8744 34.8847 42.5366 35.1376 42.1073 35.3289C41.6781 35.5201 41.1808 35.6157 40.6156 35.6157C39.9866 35.6157 39.4234 35.4882 38.9262 35.2332C38.4289 34.9782 38.0379 34.6234 37.7532 34.1686C37.4684 33.7096 37.3261 33.1741 37.3261 32.5621C37.3261 31.8906 37.4578 31.3041 37.7213 30.8026C37.9891 30.2969 38.3737 29.9037 38.8752 29.6232C39.3809 29.3385 39.9866 29.1961 40.6921 29.1961C41.3041 29.1961 41.8204 29.3024 42.2412 29.5149C42.6619 29.7231 42.9807 30.0121 43.1974 30.3819C43.4142 30.7474 43.5226 31.166 43.5226 31.6377Z" fill="#F2F5F9"/>
<path d="M48.6662 34.3471L47.4549 36.4126L44.6946 30.5157C44.6223 30.3542 44.548 30.2416 44.4715 30.1779C44.395 30.1099 44.2866 30.0525 44.1463 30.0057C44.0656 29.9675 44.0061 29.925 43.9678 29.8782C43.9338 29.8272 43.9168 29.7635 43.9168 29.687C43.9168 29.585 43.9508 29.5064 44.0188 29.4511C44.0911 29.3959 44.1888 29.3682 44.3121 29.3682H47.4549C47.5782 29.3682 47.6738 29.3959 47.7418 29.4511C47.8141 29.5064 47.8502 29.585 47.8502 29.687C47.8502 29.7635 47.8268 29.8272 47.7801 29.8782C47.7376 29.925 47.6653 29.9632 47.5633 29.993L47.3593 30.044C47.1766 30.0907 47.0703 30.1672 47.0406 30.2735C47.0108 30.3797 47.0512 30.5646 47.1617 30.8281L48.6662 34.3471ZM47.3466 36.2341L47.6398 35.5265L47.9203 34.9846L49.5396 30.9301C49.6458 30.6709 49.6819 30.4775 49.6479 30.35C49.6182 30.2182 49.5098 30.1269 49.3228 30.0759L49.0869 30.0121C48.9892 29.9866 48.9169 29.9462 48.8702 29.891C48.8234 29.8357 48.8001 29.7677 48.8001 29.687C48.8001 29.585 48.8341 29.5064 48.9021 29.4511C48.9743 29.3959 49.0721 29.3682 49.1953 29.3682H50.9867C51.11 29.3682 51.2056 29.3959 51.2736 29.4511C51.3458 29.5064 51.3819 29.585 51.3819 29.687C51.3819 29.7507 51.3607 29.8102 51.3182 29.8655C51.2799 29.9165 51.2141 29.9632 51.1206 30.0057C50.9463 30.078 50.8061 30.1694 50.6998 30.2799C50.5936 30.3904 50.4894 30.5731 50.3874 30.8281L48.2709 36.011C48.0074 36.6612 47.7631 37.1627 47.5378 37.5155C47.3168 37.8682 47.0767 38.1126 46.8174 38.2486C46.5624 38.3846 46.2458 38.4526 45.8676 38.4526C45.3151 38.4526 44.8773 38.306 44.5543 38.0127C44.2313 37.7195 44.0698 37.3519 44.0698 36.9099C44.0698 36.5996 44.1484 36.3531 44.3057 36.1704C44.4629 35.9919 44.6733 35.9026 44.9368 35.9026C45.1918 35.9026 45.3873 35.977 45.5233 36.1257C45.6593 36.2745 45.7762 36.4742 45.8739 36.725L45.9823 37.0055C46.0291 37.15 46.0907 37.2605 46.1672 37.337C46.2479 37.4177 46.3351 37.4581 46.4286 37.4581C46.5178 37.4581 46.6028 37.4305 46.6836 37.3752C46.7643 37.32 46.8557 37.2031 46.9577 37.0246C47.0639 36.8504 47.1936 36.5869 47.3466 36.2341Z" fill="#F2F5F9"/>
<path d="M11.4311 40.7434V41.3872L11.5331 41.5849V48.3041C11.5331 48.4571 11.548 48.5655 11.5777 48.6292C11.6075 48.6972 11.6585 48.7419 11.7307 48.7631L11.973 48.8332C12.058 48.8672 12.1196 48.9097 12.1579 48.9607C12.2004 49.016 12.2216 49.0797 12.2216 49.152C12.2216 49.2497 12.1876 49.3262 12.1196 49.3815C12.0559 49.441 11.9539 49.4707 11.8136 49.4707H9.05324C8.90874 49.4707 8.80462 49.441 8.74087 49.3815C8.67712 49.3262 8.64524 49.2497 8.64524 49.152C8.64524 49.0797 8.66437 49.016 8.70262 48.9607C8.74087 48.9097 8.80462 48.8672 8.89387 48.8332L9.09149 48.7695C9.15949 48.7397 9.20837 48.693 9.23812 48.6292C9.27212 48.5655 9.28912 48.4592 9.28912 48.3105V41.9865C9.28912 41.8632 9.27212 41.7761 9.23812 41.7251C9.20412 41.6741 9.15099 41.6401 9.07874 41.6231L8.83649 41.5912C8.75574 41.5657 8.69624 41.5317 8.65799 41.4892C8.62399 41.4425 8.60699 41.383 8.60699 41.3107C8.60699 41.2257 8.63037 41.162 8.67712 41.1195C8.72387 41.0727 8.81312 41.0196 8.94487 40.9601L10.1625 40.4629C10.341 40.3906 10.4876 40.3396 10.6024 40.3099C10.7214 40.2801 10.8276 40.2652 10.9211 40.2652C11.0911 40.2652 11.2186 40.3099 11.3036 40.3991C11.3886 40.4884 11.4311 40.6031 11.4311 40.7434ZM11.1124 42.4136L10.749 42.0247C11.1017 41.468 11.4991 41.0324 11.9411 40.7179C12.3831 40.4034 12.8825 40.2461 13.4392 40.2461C13.945 40.2461 14.3955 40.3757 14.7907 40.635C15.186 40.89 15.4984 41.2449 15.7279 41.6996C15.9574 42.1544 16.0721 42.6792 16.0721 43.2742C16.0721 43.9585 15.934 44.5556 15.6577 45.0656C15.3815 45.5714 15.0054 45.9645 14.5294 46.245C14.0534 46.5255 13.5179 46.6657 12.9229 46.6657C12.4129 46.6657 11.9645 46.5531 11.5777 46.3279C11.1952 46.1026 10.8722 45.7669 10.6087 45.3206L11.1634 44.9062C11.3631 45.2207 11.5714 45.4502 11.7881 45.5947C12.0049 45.735 12.2386 45.8051 12.4894 45.8051C12.7359 45.8051 12.9547 45.7265 13.146 45.5692C13.3372 45.412 13.486 45.1634 13.5922 44.8234C13.6985 44.4834 13.7516 44.0435 13.7516 43.5037C13.7516 43.0022 13.6964 42.5942 13.5859 42.2797C13.4796 41.961 13.333 41.7272 13.146 41.5785C12.9632 41.4255 12.7529 41.349 12.5149 41.349C12.2471 41.349 11.9964 41.4361 11.7626 41.6104C11.5289 41.7804 11.3121 42.0481 11.1124 42.4136Z" fill="#F2F5F9"/>
<path d="M23.0155 42.6877C23.0155 42.947 22.9432 43.1467 22.7987 43.287C22.6585 43.4272 22.4524 43.4974 22.1804 43.4974H18.298V42.93H20.4591C20.6801 42.93 20.7906 42.828 20.7906 42.624C20.7906 42.0672 20.7077 41.6592 20.542 41.4C20.3762 41.1365 20.1574 41.0047 19.8854 41.0047C19.6814 41.0047 19.4986 41.0727 19.3371 41.2087C19.1756 41.3447 19.0481 41.5466 18.9546 41.8144C18.8654 42.0779 18.8207 42.403 18.8207 42.7897C18.8207 43.5887 19.0035 44.1816 19.369 44.5684C19.7387 44.9551 20.2317 45.1485 20.848 45.1485C21.1795 45.1485 21.4749 45.0932 21.7341 44.9827C21.9934 44.8722 22.2144 44.698 22.3971 44.46C22.4949 44.3665 22.5692 44.3027 22.6202 44.2687C22.6755 44.2347 22.7307 44.2177 22.786 44.2177C22.8582 44.2177 22.9114 44.2539 22.9454 44.3261C22.9836 44.3984 23.0006 44.4855 22.9964 44.5875C22.9879 44.9572 22.8604 45.3015 22.6139 45.6202C22.3674 45.9347 22.0295 46.1876 21.6002 46.3789C21.171 46.5701 20.6737 46.6657 20.1085 46.6657C19.4795 46.6657 18.9164 46.5382 18.4191 46.2832C17.9219 46.0282 17.5309 45.6734 17.2461 45.2186C16.9614 44.7596 16.819 44.2241 16.819 43.6121C16.819 42.9406 16.9507 42.3541 17.2142 41.8526C17.482 41.3469 17.8666 40.9537 18.3681 40.6732C18.8739 40.3885 19.4795 40.2461 20.185 40.2461C20.797 40.2461 21.3134 40.3524 21.7341 40.5649C22.1549 40.7731 22.4736 41.0621 22.6904 41.4319C22.9071 41.7974 23.0155 42.216 23.0155 42.6877Z" fill="#F2F5F9"/>
<path d="M26.712 40.7434V45.3334C26.712 45.4864 26.7269 45.5947 26.7566 45.6585C26.7864 45.7222 26.8374 45.769 26.9096 45.7987L27.0881 45.8625C27.2241 45.9305 27.2921 46.0304 27.2921 46.1621C27.2921 46.3874 27.154 46.5 26.8777 46.5H24.2321C24.0876 46.5 23.9835 46.4724 23.9197 46.4171C23.856 46.3576 23.8241 46.279 23.8241 46.1812C23.8241 46.109 23.8432 46.0474 23.8815 45.9964C23.9197 45.9411 23.9835 45.8965 24.0727 45.8625L24.2704 45.7987C24.3384 45.769 24.3872 45.7222 24.417 45.6585C24.451 45.5947 24.468 45.4885 24.468 45.3397V41.9865C24.468 41.8632 24.451 41.7761 24.417 41.7251C24.383 41.6741 24.3299 41.6401 24.2576 41.6231L24.0154 41.5912C23.9346 41.5657 23.8751 41.5317 23.8369 41.4892C23.8029 41.4425 23.7859 41.383 23.7859 41.3107C23.7859 41.2257 23.8092 41.1577 23.856 41.1067C23.9027 41.0557 23.992 41.0069 24.1237 40.9601L25.4434 40.4629C25.6261 40.3949 25.7749 40.346 25.8896 40.3162C26.0044 40.2822 26.1149 40.2652 26.2211 40.2652C26.3826 40.2652 26.5037 40.3099 26.5845 40.3991C26.6695 40.4884 26.712 40.6031 26.712 40.7434ZM26.4952 42.2287L26.1637 41.8845L26.3869 41.6805C26.9521 41.1492 27.4451 40.7774 27.8659 40.5649C28.2866 40.3524 28.6776 40.2461 29.0389 40.2461C29.5956 40.2461 30.044 40.4267 30.384 40.788C30.724 41.1492 30.894 41.6274 30.894 42.2224V45.327C30.894 45.48 30.9089 45.5905 30.9386 45.6585C30.9726 45.7222 31.0257 45.769 31.098 45.7987L31.2829 45.8625C31.3721 45.8965 31.4359 45.9411 31.4741 45.9964C31.5166 46.0474 31.5379 46.109 31.5379 46.1812C31.5379 46.279 31.5039 46.3576 31.4359 46.4171C31.3721 46.4724 31.2701 46.5 31.1299 46.5H28.4779C28.2016 46.5 28.0635 46.3874 28.0635 46.1621C28.0635 46.0304 28.1294 45.9305 28.2611 45.8625L28.4524 45.7987C28.5246 45.769 28.5756 45.7222 28.6054 45.6585C28.6351 45.5905 28.65 45.48 28.65 45.327V42.5411C28.65 42.2181 28.5735 41.978 28.4205 41.8207C28.2675 41.6592 28.0592 41.5785 27.7957 41.5785C27.63 41.5785 27.4536 41.6146 27.2666 41.6869C27.0839 41.7591 26.9075 41.8696 26.7375 42.0184L26.4952 42.2287Z" fill="#F2F5F9"/>
<path d="M35.1414 40.7434V45.3334C35.1414 45.4864 35.1563 45.5947 35.1861 45.6585C35.2158 45.7222 35.2668 45.769 35.3391 45.7987L35.5176 45.8625C35.6536 45.9305 35.7216 46.0304 35.7216 46.1621C35.7216 46.3874 35.5834 46.5 35.3072 46.5H32.6616C32.5171 46.5 32.4129 46.4724 32.3492 46.4171C32.2854 46.3576 32.2536 46.279 32.2536 46.1812C32.2536 46.109 32.2727 46.0474 32.3109 45.9964C32.3492 45.9411 32.4129 45.8965 32.5022 45.8625L32.6998 45.7987C32.7678 45.769 32.8167 45.7222 32.8464 45.6585C32.8804 45.5947 32.8974 45.4885 32.8974 45.3397V41.9865C32.8974 41.8632 32.8804 41.7761 32.8464 41.7251C32.8124 41.6741 32.7593 41.6401 32.6871 41.6231L32.4448 41.5912C32.3641 41.5657 32.3046 41.5317 32.2663 41.4892C32.2323 41.4425 32.2153 41.383 32.2153 41.3107C32.2153 41.2257 32.2387 41.1577 32.2854 41.1067C32.3322 41.0557 32.4214 41.0069 32.5532 40.9601L33.8728 40.4629C34.0556 40.3949 34.2043 40.346 34.3191 40.3162C34.4338 40.2822 34.5443 40.2652 34.6506 40.2652C34.8121 40.2652 34.9332 40.3099 35.0139 40.3991C35.0989 40.4884 35.1414 40.6031 35.1414 40.7434ZM34.9247 42.2287L34.5932 41.8845L34.8163 41.6805C35.3816 41.1492 35.8746 40.7774 36.2953 40.5649C36.7161 40.3524 37.1071 40.2461 37.4683 40.2461C38.0251 40.2461 38.4734 40.4267 38.8134 40.788C39.1534 41.1492 39.3234 41.6274 39.3234 42.2224V45.327C39.3234 45.48 39.3383 45.5905 39.3681 45.6585C39.4021 45.7222 39.4552 45.769 39.5274 45.7987L39.7123 45.8625C39.8016 45.8965 39.8653 45.9411 39.9036 45.9964C39.9461 46.0474 39.9673 46.109 39.9673 46.1812C39.9673 46.279 39.9333 46.3576 39.8653 46.4171C39.8016 46.4724 39.6996 46.5 39.5593 46.5H36.9073C36.6311 46.5 36.4929 46.3874 36.4929 46.1621C36.4929 46.0304 36.5588 45.9305 36.6906 45.8625L36.8818 45.7987C36.9541 45.769 37.0051 45.7222 37.0348 45.6585C37.0646 45.5905 37.0794 45.48 37.0794 45.327V42.5411C37.0794 42.2181 37.0029 41.978 36.8499 41.8207C36.6969 41.6592 36.4887 41.5785 36.2252 41.5785C36.0594 41.5785 35.8831 41.6146 35.6961 41.6869C35.5133 41.7591 35.3369 41.8696 35.1669 42.0184L34.9247 42.2287Z" fill="#F2F5F9"/>
<path d="M45.018 45.3971L43.8068 47.4626L41.0464 41.5657C40.9741 41.4042 40.8998 41.2916 40.8233 41.2279C40.7468 41.1599 40.6384 41.1025 40.4981 41.0557C40.4174 41.0175 40.3579 40.975 40.3196 40.9282C40.2856 40.8772 40.2686 40.8135 40.2686 40.737C40.2686 40.635 40.3026 40.5564 40.3706 40.5011C40.4429 40.4459 40.5406 40.4182 40.6639 40.4182H43.8068C43.93 40.4182 44.0256 40.4459 44.0936 40.5011C44.1659 40.5564 44.202 40.635 44.202 40.737C44.202 40.8135 44.1786 40.8772 44.1319 40.9282C44.0894 40.975 44.0171 41.0132 43.9151 41.043L43.7111 41.094C43.5284 41.1407 43.4221 41.2172 43.3924 41.3235C43.3626 41.4297 43.403 41.6146 43.5135 41.8781L45.018 45.3971ZM43.6984 47.2841L43.9916 46.5765L44.2721 46.0346L45.8914 41.9801C45.9976 41.7209 46.0338 41.5275 45.9998 41.4C45.97 41.2682 45.8616 41.1769 45.6746 41.1259L45.4388 41.0621C45.341 41.0366 45.2688 40.9962 45.222 40.941C45.1753 40.8857 45.1519 40.8177 45.1519 40.737C45.1519 40.635 45.1859 40.5564 45.2539 40.5011C45.3261 40.4459 45.4239 40.4182 45.5471 40.4182H47.3385C47.4618 40.4182 47.5574 40.4459 47.6254 40.5011C47.6976 40.5564 47.7338 40.635 47.7338 40.737C47.7338 40.8007 47.7125 40.8602 47.67 40.9155C47.6318 40.9665 47.5659 41.0132 47.4724 41.0557C47.2981 41.128 47.1579 41.2194 47.0516 41.3299C46.9454 41.4404 46.8413 41.6231 46.7393 41.8781L44.6228 47.061C44.3593 47.7112 44.1149 48.2127 43.8896 48.5655C43.6686 48.9182 43.4285 49.1626 43.1693 49.2986C42.9143 49.4346 42.5976 49.5026 42.2194 49.5026C41.6669 49.5026 41.2291 49.356 40.9061 49.0627C40.5831 48.7695 40.4216 48.4019 40.4216 47.9599C40.4216 47.6496 40.5003 47.4031 40.6575 47.2204C40.8148 47.0419 41.0251 46.9526 41.2886 46.9526C41.5436 46.9526 41.7391 47.027 41.8751 47.1757C42.0111 47.3245 42.128 47.5242 42.2258 47.775L42.3341 48.0555C42.3809 48.2 42.4425 48.3105 42.519 48.387C42.5998 48.4677 42.6869 48.5081 42.7804 48.5081C42.8696 48.5081 42.9546 48.4805 43.0354 48.4252C43.1161 48.37 43.2075 48.2531 43.3095 48.0746C43.4158 47.9004 43.5454 47.6369 43.6984 47.2841Z" fill="#F2F5F9"/>
<rect x="53.3" y="51.6" width="46.75" height="9.35" rx="1" transform="rotate(-180 53.3 51.6)" fill="url(#paint0_linear_1_6)"/>
<defs>
<filter id="filter0_d_1_6" x="0" y="0" width="61" height="61" filterUnits="userSpaceOnUse" color-interpolation-filters="sRGB">
<feFlood flood-opacity="0" result="BackgroundImageFix"/>
<feColorMatrix in="SourceAlpha" type="matrix" values="0 0 0 0 0 0 0 0 0 0 0 0 0 0 0 0 0 0 127 0" result="hardAlpha"/>
<feOffset dx="1" dy="1"/>
<feGaussianBlur stdDeviation="2.5"/>
<feComposite in2="hardAlpha" operator="out"/>
<feColorMatrix type="matrix" values="0 0 0 0 0 0 0 0 0 0 0 0 0 0 0 0 0 0 0.15 0"/>
<feBlend mode="normal" in2="BackgroundImageFix" result="effect1_dropShadow_1_6"/>
<feBlend mode="normal" in="SourceGraphic" in2="effect1_dropShadow_1_6" result="shape"/>
</filter>
<linearGradient id="paint0_linear_1_6" x1="76.675" y1="51.6" x2="76.675" y2="60.95" gradientUnits="userSpaceOnUse">
<stop offset="0.177083" stop-color="#111729"/>
<stop offset="1" stop-color="#000B2C" stop-opacity="0"/>
</linearGradient>
</defs>
</svg>
