<svg width="70" height="71" viewBox="0 0 70 71" fill="none" xmlns="http://www.w3.org/2000/svg">
<path d="M66.3114 53.1326C62.232 60.261 55.8071 65.7543 48.1315 68.6767C40.4559 71.5991 32.0045 71.7696 24.2172 69.1593C16.43 66.549 9.78871 61.3193 5.42505 54.3613C1.0614 47.4033 -0.754669 39.1475 0.286288 31.0006C1.32724 22.8537 5.16082 15.3198 11.1338 9.68258C17.1068 4.04534 24.8497 0.653544 33.0431 0.0851226C41.2365 -0.483299 49.3735 1.80682 56.0677 6.56528C62.7619 11.3237 67.5991 18.2561 69.7551 26.1812L59.4584 28.9823C57.9505 23.4394 54.5673 18.5909 49.8853 15.2627C45.2033 11.9346 39.5122 10.3329 33.7816 10.7305C28.051 11.128 22.6356 13.5003 18.458 17.443C14.2805 21.3858 11.5992 26.6551 10.8712 32.3531C10.1431 38.0511 11.4133 43.8253 14.4653 48.6918C17.5172 53.5583 22.1622 57.216 27.6087 59.0417C33.0552 60.8674 38.9662 60.7481 44.3346 58.7042C49.703 56.6602 54.1966 52.8181 57.0498 47.8324L66.3114 53.1326Z" fill="url(#paint0_linear_331_14)"/>
<defs>
<linearGradient id="paint0_linear_331_14" x1="41" y1="44.5" x2="79" y2="11" gradientUnits="userSpaceOnUse">
<stop stop-color="#1F24A1"/>
<stop stop-color="#D9D9D9"/>
<stop offset="0.0001" stop-color="#1F24A1"/>
<stop offset="0.919291" stop-color="#6298E9"/>
</linearGradient>
</defs>
</svg>
